<svg width="496" height="92" viewBox="0 0 496 92" fill="none" xmlns="http://www.w3.org/2000/svg">
<path d="M112 63.0214V22.9021H115.879V59.4489H132.06V63.0214H112Z" fill="#7253D5"/>
<path d="M167.824 22.9021H167.938L186.508 63.0214H181.964L177.592 53.4865H158.113L153.854 63.0214H149.254L167.824 22.9021ZM176.002 50.0342C173.049 43.5063 170.493 37.8073 167.881 31.6151C165.268 37.7799 162.713 43.5063 159.76 50.0342H176.002Z" fill="#7253D5"/>
<path d="M216.628 65.8871H216.513L197.973 22.9021H202.68L210.486 41.6314C212.725 46.9743 214.619 51.2089 216.571 56.1334C218.522 51.2089 220.417 46.9743 222.655 41.6314L230.462 22.9021H235.226L216.628 65.8871Z" fill="#7253D5"/>
<path d="M252.418 63.0075V22.9021H274.577V26.4664H256.298V40.9046H271.769V44.5246H256.298V59.4502H275.343V63.0214L252.418 63.0075Z" fill="#7253D5"/>
<path d="M309.443 35.3218C309.046 34.8596 308.592 34.3397 308.252 33.8776C308.252 35.0329 308.309 36.246 308.309 37.5746V65.1939H304V22.9021H304.057L330.08 53.4602L331.27 54.9044C331.27 53.7563 331.214 52.5937 331.214 51.2074V23.5953H335.522V65.8871H335.466L309.443 35.3218Z" fill="#7253D5"/>
<path d="M364.178 63.0214V22.9021H375.012C386.717 22.9021 395.7 30.5624 395.7 42.9583C395.7 55.3541 386.853 63.0214 375.23 63.0214H364.178ZM368.315 26.4676V59.4489H375.23C384.43 59.4489 391.454 53.0421 391.454 42.9583C391.454 32.8745 384.376 26.4676 374.957 26.4676H368.315Z" fill="#7253D5"/>
<path d="M418.621 63.0075V22.9021H443.55V26.4664H422.987V40.9046H440.391V44.5246H422.987V59.4502H444.412V63.0214L418.621 63.0075Z" fill="#7253D5"/>
<path d="M472.508 22.0007H467.99V62.6483H472.508V22.0007Z" fill="#7253D5"/>
<path d="M471.678 22L471.749 25.6131L481.443 25.7382C481.958 25.738 482.471 25.7798 482.979 25.8633C484.18 25.9821 485.336 26.4187 486.345 27.1348C487.223 27.8361 487.916 28.7753 488.355 29.8585C489.015 31.1809 489.275 32.6956 489.097 34.1873C488.777 36.056 487.796 37.7145 486.364 38.808C485.789 39.2143 485.155 39.5148 484.489 39.6973C483.222 39.9316 481.935 40.0247 480.65 39.9753H479.229L471.672 39.8919L471.602 43.5953L481.264 43.6787H482.09C483.087 43.63 484.081 43.5139 485.065 43.3313C485.921 43.1437 486.745 42.8157 487.51 42.3586C491.612 39.8919 492.284 34.5625 492.309 34.3054C492.949 28.7815 489.302 24.7932 488.086 24.0011C487.1 23.3833 486.041 22.9157 484.937 22.6115C484.249 22.421 483.547 22.2932 482.838 22.2293C481.895 22.1164 480.947 22.0561 479.997 22.0486L471.678 22Z" fill="#7253D5"/>
<path d="M478.83 43.2238L483.617 42.7759L495.998 62.6125L490.581 62.648C486.677 56.1733 482.76 49.6985 478.83 43.2238Z" fill="#7253D5"/>
<g filter="url(#filter0_d_1544_545)">
<path fill-rule="evenodd" clip-rule="evenodd" d="M6 13.3179L13.8434 12.5048L13.9788 13.8108C14.0927 14.9095 15.0757 15.7078 16.1743 15.5939L20.039 15.1933C21.1377 15.0794 21.9361 14.0964 21.8222 12.9977L21.6868 11.6917L29.5302 10.8786L29.6655 12.1847C29.7794 13.2833 30.7624 14.0817 31.8611 13.9678L35.7258 13.5671C36.8245 13.4532 37.6228 12.4703 37.5089 11.3716L37.3735 10.0655L45.2169 9.25245L45.3523 10.5585C45.4662 11.6572 46.4492 12.4555 47.5479 12.3416L51.4126 11.941C52.5113 11.8271 53.3096 10.8441 53.1957 9.7454L53.0603 8.43936L60.9037 7.62628L61.0391 8.93232C61.153 10.031 62.136 10.8293 63.2346 10.7154L67.0993 10.3148C68.198 10.2009 68.9964 9.21791 68.8825 8.11923L68.7471 6.81319L76.5904 6.00011L77.2737 12.5909L75.3413 12.7912C74.2426 12.9051 73.4443 13.8881 73.5582 14.9867L73.829 17.5988C73.9429 18.6975 74.9259 19.4958 76.0246 19.3819L77.9569 19.1816L78.6401 25.7724L76.7078 25.9727C75.6091 26.0866 74.8108 27.0696 74.9247 28.1683L75.1955 30.7803C75.3094 31.879 76.2923 32.6773 77.391 32.5634L79.3234 32.3631L80.0066 38.9539L78.0743 39.1542C76.9756 39.2681 76.1772 40.2511 76.2911 41.3498L76.5619 43.9618C76.6758 45.0605 77.6588 45.8589 78.7575 45.745L80.6898 45.5446L81.3731 52.1354L79.4407 52.3357C78.342 52.4496 77.5437 53.4326 77.6576 54.5313L77.9284 57.1434C78.0423 58.242 79.0253 59.0404 80.1239 58.9265L82.0563 58.7261L82.7395 65.3169L80.8072 65.5172C79.7085 65.6311 78.9102 66.6141 79.0241 67.7128L79.2948 70.3249C79.4087 71.4235 80.3917 72.2219 81.4904 72.108L83.4228 71.9077L84.106 78.4984L76.2626 79.3115L76.1272 78.0055C76.0133 76.9068 75.0303 76.1085 73.9317 76.2224L70.0669 76.623C68.9683 76.7369 68.1699 77.7199 68.2838 78.8185L68.4192 80.1246L60.5758 80.9377L60.4405 79.6316C60.3266 78.5329 59.3436 77.7346 58.2449 77.8485L54.3802 78.2492C53.2815 78.3631 52.4832 79.346 52.5971 80.4447L52.7325 81.7508L44.8891 82.5638L44.7537 81.2578C44.6398 80.1591 43.6568 79.3608 42.5581 79.4747L38.6934 79.8753C37.5947 79.9892 36.7964 80.9722 36.9103 82.0709L37.0457 83.3769L29.2023 84.19L29.0669 82.884C28.953 81.7853 27.97 80.987 26.8714 81.1009L23.0066 81.5015C21.908 81.6154 21.1096 82.5984 21.2235 83.6971L21.3589 85.0031L13.5155 85.8162L12.8323 79.2254L14.7647 79.0251C15.8633 78.9112 16.6617 77.9282 16.5478 76.8295L16.277 74.2175C16.1631 73.1188 15.1801 72.3205 14.0814 72.4344L12.1491 72.6347L11.4658 66.0439L13.3982 65.8436C14.4969 65.7297 15.2952 64.7467 15.1813 63.648L14.9105 61.036C14.7966 59.9373 13.8137 59.1389 12.715 59.2528L10.7826 59.4532L10.0994 52.8624L12.0317 52.6621C13.1304 52.5482 13.9287 51.5652 13.8149 50.4665L13.5441 47.8544C13.4302 46.7558 12.4472 45.9574 11.3485 46.0713L9.41616 46.2716L8.73292 39.6809L10.6653 39.4806C11.764 39.3667 12.5623 38.3837 12.4484 37.285L12.1776 34.6729C12.0637 33.5743 11.0807 32.7759 9.98205 32.8898L8.04969 33.0901L7.36646 26.4994L9.29881 26.2991C10.3975 26.1852 11.1958 25.2022 11.0819 24.1035L10.8111 21.4914C10.6973 20.3927 9.71427 19.5944 8.61558 19.7083L6.68323 19.9086L6 13.3179Z" fill="white"/>
</g>
<rect x="14.5273" y="19.095" width="55.1979" height="59.6347" transform="rotate(-5.91843 14.5273 19.095)" fill="#7253D5"/>
<path d="M62.1741 20.5911L23.1003 24.6417C20.7193 24.8885 18.9892 27.0188 19.236 29.3999L23.2866 68.4736C23.5334 70.8547 25.6637 72.5848 28.0448 72.338L67.1185 68.2874C69.4995 68.0405 71.2297 65.9102 70.9828 63.5292L66.9322 24.4554C66.6854 22.0744 64.5551 20.3443 62.1741 20.5911Z" fill="#7253D5"/>
<path d="M44.4472 57.4343C43.5716 57.3125 42.7698 56.8777 42.1901 56.2104C41.4829 55.5699 40.8964 54.8077 40.4584 53.96C40.0401 53.1587 39.7284 52.306 39.5313 51.4238C39.3607 50.7551 39.244 50.0738 39.1824 49.3865C39.1272 48.6608 39.1301 47.9319 39.1913 47.2067C39.2176 46.3092 39.3651 45.4193 39.6299 44.5613C39.7635 44.0884 39.9589 43.6351 40.211 43.2132C40.5132 42.7506 40.8687 42.325 41.2702 41.9452C41.7861 41.4227 42.3296 40.9284 42.8985 40.4642C43.3301 40.0955 43.6962 39.7984 43.9584 39.593L44.1267 39.5756C44.3966 39.518 44.6769 39.5308 44.9405 39.6127C45.6597 39.915 46.3022 40.3742 46.8212 40.9567C47.5805 41.7616 48.2041 42.6844 48.6677 43.6892C49.0034 44.4154 49.2562 45.1771 49.4215 45.9599C49.685 47.2925 49.709 48.6614 49.4923 50.0024C49.3302 51.2387 48.9945 52.446 48.4952 53.5886C48.0703 54.5227 47.5235 55.3964 46.8692 56.187C46.6165 56.5628 46.2801 56.8749 45.8865 57.0989C45.4455 57.3378 44.9484 57.4537 44.4472 57.4343Z" fill="white"/>
<path d="M47.6959 57.0166C47.9833 56.1703 48.3697 55.3608 48.8471 54.6051C49.2209 53.9421 49.5419 53.2507 49.8072 52.5374C50.1824 51.835 50.4137 51.0647 50.4876 50.2718C50.4715 49.8204 50.4249 49.3706 50.348 48.9255C50.2139 48.4182 50.2031 47.8861 50.3167 47.3737C50.422 47.0933 50.5862 46.8388 50.7982 46.6272C51.1051 46.3192 51.4503 46.052 51.8255 45.8322C52.6867 45.2327 52.7154 45.1973 53.013 45.0207C53.3171 44.8186 53.646 44.6565 53.9916 44.5385C54.5443 44.409 55.122 44.4361 55.6601 44.6167C56.2609 44.7727 56.8038 45.099 57.2236 45.5562C57.6558 46.0276 57.9155 46.6317 57.9601 47.2698C57.9512 47.7317 57.8526 48.1876 57.6699 48.612C57.19 50.2331 57.3563 49.8837 56.7905 51.6919C56.6468 52.2212 56.4679 52.7404 56.255 53.2459C55.9867 53.82 55.648 54.3584 55.2468 54.8488C54.7464 55.4462 54.1621 55.9679 53.512 56.3975C52.6676 56.9896 51.7421 57.4566 50.7641 57.7839C50.1266 58.0735 49.4121 58.1475 48.7287 57.9949C48.4437 57.8945 48.1873 57.7266 47.9814 57.5054C47.8933 57.391 47.8155 57.2689 47.7492 57.1407C47.7417 57.0685 47.695 57.0086 47.695 57.0086C47.6954 57.0113 47.6957 57.0139 47.6959 57.0166Z" fill="white"/>
<path d="M50.3324 46.3585C50.1744 46.3182 50.2784 45.8376 50.0829 45.2018C49.8874 44.566 49.7073 44.6252 49.7108 44.2684C49.7438 43.9636 49.8561 43.6727 50.0364 43.4247C50.22 43.0961 50.4284 42.7821 50.6599 42.4853C50.9275 42.1277 51.233 41.8 51.571 41.508C52.0881 41.0965 52.6869 40.7997 53.3275 40.6375C53.8653 40.4863 54.4184 40.3964 54.9763 40.3693C55.7164 40.2261 56.4797 40.2579 57.2052 40.4623C57.6151 40.5752 57.9748 40.8233 58.2259 41.1664C58.4145 41.4712 58.5102 41.8244 58.5013 42.1827C58.4947 42.6335 58.3795 43.0762 58.1653 43.473C57.9811 43.8657 57.7469 44.233 57.4686 44.5658C57.2418 44.3719 56.9934 44.2047 56.7285 44.0674C56.2615 43.8038 55.7399 43.6516 55.2045 43.6229C54.669 43.5941 54.1341 43.6894 53.6416 43.9014C52.933 44.1789 52.283 44.587 51.7252 45.1044C50.9828 45.7565 50.6305 46.1089 50.6018 46.1443C50.5731 46.1796 50.4151 46.3742 50.3324 46.3585Z" fill="white"/>
<path d="M41.9566 40.0358C42.0851 40.1035 42.4328 39.3952 43.3302 38.8324C43.7686 38.4975 44.3039 38.3141 44.8555 38.3098C45.4593 38.3525 45.8678 38.6989 46.5007 39.257C47.1337 39.8199 47.6883 40.4652 48.1494 41.1758C48.4877 41.6654 48.7973 42.1742 49.0768 42.6996L49.9648 40.6393L50.6597 38.8258C50.9038 38.182 51.0898 37.5176 51.2152 36.8405C51.4417 35.9448 51.4446 35.0072 51.2238 34.1101C51.0971 33.6696 50.8601 32.8681 50.2629 32.6546C49.9072 32.586 49.5392 32.6242 49.2052 32.7642C48.4163 32.9675 48.2502 33.1629 47.4359 33.4336C47.1077 33.5486 46.6479 33.6449 45.8101 33.8451C45.3457 33.9049 44.8924 34.031 44.4639 34.2196C44.0413 34.5051 43.6995 34.8949 43.4715 35.3511C42.8986 36.3096 42.9763 36.747 42.3705 38.5593C42.0714 39.4246 41.8449 39.9745 41.9566 40.0358Z" fill="white"/>
<path d="M31.0017 45.1331C30.5964 44.3454 30.3123 43.501 30.1589 42.6286C30.0209 41.6452 30.0211 40.6474 30.1594 39.6641C30.2415 38.6593 30.3672 38.1522 30.7747 37.786C30.9663 37.5986 31.2106 37.4744 31.4748 37.4299C31.9476 37.3809 32.3086 37.6593 33.0813 38.3163C33.5697 38.7269 34.0366 39.1625 34.4801 39.6211C35.2064 40.4564 35.9886 41.2413 36.8215 41.9703L38.7869 44.1316C38.7811 44.25 38.7457 44.3651 38.6839 44.4663C38.5836 44.6092 38.437 44.7131 38.2689 44.7604C37.9954 44.8283 37.7069 44.8011 37.451 44.6832C37.0384 44.5316 36.6081 44.3656 36.1908 44.2468C35.1735 43.984 34.1066 43.9804 33.0876 44.2365C32.5227 44.3488 31.9824 44.5611 31.4922 44.8635C31.3494 44.9561 31.2139 45.0596 31.0868 45.1728L31.0227 45.1795L31.0017 45.1331Z" fill="white"/>
<path d="M38.6981 45.8734C38.4761 46.8641 38.3583 47.8753 38.3467 48.8905C38.3053 50.035 38.4375 51.1792 38.739 52.2841C39.0959 53.4705 39.6332 54.5949 40.3319 55.618C40.6519 56.1237 41.0025 56.6094 41.3817 57.0724C41.0461 57.4202 40.6736 57.7304 40.2708 57.9975C39.5334 58.5558 38.6398 58.8693 37.7152 58.8942C37.0417 58.8678 36.3888 58.6551 35.8291 58.2797C35.031 57.635 34.3634 56.8437 33.8622 55.9484C33.7936 55.8341 33.4987 55.411 33.0028 54.612C32.4093 53.653 31.8343 52.7163 31.2117 51.4769C30.6906 50.6453 30.3836 49.6976 30.3183 48.7184C30.308 48.3114 30.3819 47.9067 30.5353 47.5296C30.8004 46.9729 31.2262 46.5084 31.7578 46.196C32.2921 45.8544 32.8926 45.6293 33.5198 45.5355C34.5987 45.3377 35.7076 45.3747 36.7709 45.6439L38.6981 45.8734Z" fill="white"/>
<path d="M55.2572 34.8008C55.096 34.3396 55.9545 33.0114 55.9545 33.0114C56.0382 32.8812 56.3838 32.2298 57.0838 30.9342C57.3465 30.2568 57.7742 29.6557 58.328 29.1853C58.5295 29.0054 58.7904 28.9063 59.0605 28.9069C59.3877 28.9378 59.5986 29.1751 59.9383 29.5611C60.2584 29.8908 60.5106 30.2802 60.6807 30.7072C60.8556 31.1705 60.9237 31.6673 60.88 32.1606C60.8201 32.7284 60.63 33.2747 60.3247 33.7571C60.0303 34.342 59.5915 34.8419 59.0497 35.2095C58.2666 35.6624 57.3504 35.829 56.458 35.6807C56.1337 35.6693 55.8223 35.5506 55.5726 35.3432C55.4877 35.2369 55.4134 35.1225 55.3509 35.0017C55.3509 35.0017 55.3219 34.9561 55.2572 34.8008Z" fill="white"/>
<defs>
<filter id="filter0_d_1544_545" x="0" y="0" width="90.1055" height="91.8162" filterUnits="userSpaceOnUse" color-interpolation-filters="sRGB">
<feFlood flood-opacity="0" result="BackgroundImageFix"/>
<feColorMatrix in="SourceAlpha" type="matrix" values="0 0 0 0 0 0 0 0 0 0 0 0 0 0 0 0 0 0 127 0" result="hardAlpha"/>
<feOffset/>
<feGaussianBlur stdDeviation="3"/>
<feColorMatrix type="matrix" values="0 0 0 0 0 0 0 0 0 0 0 0 0 0 0 0 0 0 0.31 0"/>
<feBlend mode="normal" in2="BackgroundImageFix" result="effect1_dropShadow_1544_545"/>
<feBlend mode="normal" in="SourceGraphic" in2="effect1_dropShadow_1544_545" result="shape"/>
</filter>
</defs>
</svg>
