<svg width="1135" height="112" viewBox="0 0 1135 112" fill="none" xmlns="http://www.w3.org/2000/svg">
<path d="M92.343 2.29761H9.17631C4.10837 2.29761 0 6.40598 0 11.4739V94.6406C0 99.7085 4.10837 103.817 9.17631 103.817H92.343C97.4109 103.817 101.519 99.7085 101.519 94.6406V11.4739C101.519 6.40598 97.4109 2.29761 92.343 2.29761Z" fill="white"/>
<path d="M46.9731 76.0145C45.156 75.5668 43.5624 74.4762 42.4873 72.9443C41.1379 71.4412 40.0691 69.7081 39.3318 67.8274C38.626 66.0485 38.1558 64.185 37.9332 62.2841C37.7198 60.8388 37.6229 59.3786 37.6433 57.9177C37.6853 56.3776 37.8507 54.8433 38.1379 53.3295C38.3891 51.4452 38.894 49.6035 39.6388 47.8545C40.0235 46.8877 40.5339 45.9759 41.1569 45.1425C41.8944 44.2343 42.7359 43.4156 43.6642 42.7034C44.8646 41.7158 46.1171 40.7935 47.4165 39.9403C48.4058 39.2581 49.2416 38.7123 49.8386 38.337H50.1967C50.7778 38.2748 51.3651 38.3629 51.9024 38.5929C53.3509 39.3865 54.6037 40.4937 55.5695 41.8336C56.9927 43.6944 58.1045 45.7738 58.8614 47.9909C59.4097 49.5935 59.7759 51.2528 59.9529 52.9373C60.2171 55.801 59.9687 58.6889 59.2195 61.4655C58.6083 64.0336 57.6379 66.5026 56.337 68.7997C55.2383 70.674 53.8962 72.3946 52.3458 73.9166C51.7315 74.6526 50.955 75.2364 50.0773 75.6222C49.0965 76.0291 48.0243 76.1645 46.9731 76.0145Z" fill="white"/>
<path d="M53.8984 75.8435C54.6885 74.1239 55.679 72.5037 56.8492 71.0165C57.781 69.702 58.608 68.3161 59.3223 66.8718C60.2659 65.4746 60.9211 63.9031 61.2497 62.2495C61.3144 61.2955 61.3144 60.3381 61.2497 59.3841C61.0779 58.2863 61.1715 57.1634 61.5226 56.1093C61.8055 55.5418 62.2069 55.0416 62.6995 54.6425C63.4129 54.0608 64.1983 53.5735 65.0362 53.1926C66.9806 52.1181 67.0489 52.0499 67.7141 51.7429C68.3987 51.3836 69.1267 51.1142 69.8802 50.9412C71.0722 50.789 72.283 50.9721 73.3767 51.4699C74.6077 51.9297 75.6797 52.7352 76.4639 53.7896C77.2713 54.8769 77.6861 56.2056 77.6408 57.559C77.5212 58.5299 77.2142 59.4683 76.7368 60.3221C75.3723 63.6311 75.7988 62.9318 74.2125 66.6159C73.7944 67.6992 73.3044 68.7535 72.7457 69.7714C72.0554 70.9217 71.2246 71.9817 70.2725 72.9268C69.0885 74.0756 67.7441 75.0466 66.2813 75.8093C64.374 76.872 62.3231 77.6532 60.1922 78.129C58.7865 78.5996 57.2657 78.5996 55.8599 78.129C55.2816 77.8554 54.7783 77.4458 54.393 76.9351C54.2324 76.675 54.0954 76.4009 53.9837 76.1163C53.9837 75.9628 53.8984 75.8264 53.8984 75.8264C53.8987 75.8321 53.8987 75.8378 53.8984 75.8435Z" fill="white"/>
<path d="M61.7768 53.9774C61.4527 53.858 61.7768 52.8687 61.5039 51.4872C61.231 50.1056 60.8387 50.1909 60.924 49.4404C61.0601 48.8057 61.36 48.2176 61.7939 47.7348C62.2522 47.0829 62.7596 46.4671 63.3119 45.8927C63.9535 45.198 64.6684 44.5747 65.4439 44.0335C66.6226 43.2798 67.9483 42.7856 69.3328 42.5838C70.4982 42.3829 71.6826 42.3142 72.8634 42.3791C74.4531 42.239 76.0535 42.4727 77.5368 43.0613C78.3753 43.3886 79.0786 43.9897 79.5325 44.767C79.8631 45.45 79.9875 46.2146 79.8906 46.9672C79.7783 47.9152 79.4389 48.8221 78.9014 49.611C78.4276 50.3977 77.8544 51.1201 77.1958 51.7601C76.7603 51.3024 76.2739 50.896 75.746 50.5491C74.8201 49.892 73.755 49.4578 72.6336 49.2802C71.5123 49.1027 70.3651 49.1867 69.2816 49.5257C67.729 49.9552 66.271 50.6727 64.9834 51.6407C63.2778 52.8517 62.459 53.5169 62.3908 53.5851C62.3226 53.6534 61.9474 54.0286 61.7768 53.9774Z" fill="white"/>
<path d="M45.5252 38.8309C45.781 39.0015 46.6679 37.5858 48.6806 36.5965C49.6768 35.9871 50.844 35.7177 52.0065 35.829C53.2687 36.0507 54.0533 36.8694 55.2643 38.1828C56.4745 39.5063 57.5014 40.9864 58.3174 42.5833C58.9228 43.6882 59.4638 44.8272 59.9377 45.9946L62.2574 41.8499L64.1166 38.1828C64.7712 36.8803 65.3078 35.5217 65.7199 34.1233C66.3923 32.2866 66.6031 30.3127 66.3339 28.3754C66.1633 27.4202 65.8392 25.6805 64.6282 25.1006C63.8942 24.8786 63.1109 24.8786 62.3768 25.1006C60.6712 25.3564 60.2789 25.7316 58.505 26.1239C57.7886 26.2945 56.7994 26.3969 54.9914 26.6356C54.0005 26.6601 53.0183 26.8266 52.0748 27.1303C51.1225 27.6393 50.3177 28.3854 49.7381 29.2964C48.3224 31.1897 48.3906 32.1278 46.7191 35.812C45.9004 37.5688 45.3034 38.6774 45.5252 38.8309Z" fill="white"/>
<path d="M21.3346 47.1739C20.653 45.4267 20.239 43.5866 20.1065 41.7159C20.0305 39.615 20.2487 37.5137 20.7547 35.4732C21.147 33.3753 21.5222 32.3349 22.4603 31.6526C22.9047 31.3 23.4462 31.0916 24.0124 31.0557C25.0187 31.0557 25.7181 31.7208 27.202 33.273C28.1407 34.2443 29.0288 35.2634 29.8628 36.3261C31.2098 38.2435 32.6857 40.0671 34.2804 41.7841L37.9475 46.7645C37.9094 47.0126 37.8097 47.2472 37.6575 47.4468C37.4151 47.7259 37.0837 47.9127 36.7194 47.9756C36.1286 48.0589 35.5271 47.9385 35.0138 47.6344C34.178 47.2251 33.3081 46.7816 32.4553 46.4405C30.3705 45.6649 28.1245 45.4245 25.9228 45.7411C24.7086 45.8543 23.5245 46.1836 22.4262 46.7134C22.1053 46.8772 21.7973 47.0654 21.5051 47.2763H21.3687L21.3346 47.1739Z" fill="white"/>
<path d="M37.3891 50.4132C36.7053 52.4509 36.2366 54.5547 35.9905 56.69C35.6534 59.0911 35.6822 61.5294 36.0758 63.9218C36.5684 66.4981 37.4544 68.9832 38.7025 71.2902C39.266 72.425 39.8982 73.5243 40.5957 74.582C39.813 75.2412 38.9609 75.8131 38.0543 76.2877C36.3796 77.3024 34.4293 77.7675 32.4769 77.618C31.0645 77.4156 29.736 76.8251 28.6392 75.9124C27.0993 74.3804 25.8662 72.5684 25.0062 70.5737C24.8868 70.3179 24.3581 69.3627 23.4882 67.5718C22.4477 65.4227 21.4414 63.3248 20.401 60.5788C19.485 58.7139 19.0455 56.6511 19.1218 54.5749C19.1889 53.7156 19.4328 52.8794 19.8382 52.1188C20.5179 51.0044 21.516 50.1192 22.7036 49.5774C23.9035 48.9747 25.217 48.6318 26.5584 48.5711C28.8735 48.3902 31.2005 48.7102 33.3809 49.5092L37.3891 50.4132Z" fill="white"/>
<path d="M74.6732 30.7136C74.4344 29.7072 76.5324 27.0976 76.5324 27.0976C76.737 26.8418 77.6069 25.5455 79.3637 22.97C80.065 21.6009 81.0968 20.4284 82.3657 19.5588C82.8293 19.2238 83.4002 19.072 83.969 19.1324C84.6512 19.2688 85.0435 19.8146 85.6746 20.7015C86.2766 21.4658 86.7228 22.3409 86.9879 23.277C87.2549 24.2909 87.2898 25.352 87.0902 26.3813C86.8401 27.5638 86.3206 28.6728 85.5723 29.622C84.8248 30.7893 83.7915 31.7463 82.5703 32.4022C80.8224 33.185 78.8568 33.3357 77.0099 32.8286C76.3294 32.7338 75.6995 32.4158 75.2191 31.9246C75.0635 31.6822 74.9321 31.4251 74.8267 31.157C74.8267 31.157 74.7756 31.0547 74.6732 30.7136Z" fill="white"/>
<path d="M46.895 80.608C45.0778 80.1603 43.4843 79.0697 42.4092 77.5378C41.0597 76.0347 39.991 74.3016 39.2537 72.4209C38.5479 70.642 38.0777 68.7785 37.8551 66.8776C37.6417 65.4323 37.5448 63.9721 37.5652 62.5112C37.6072 60.9711 37.7726 59.4368 38.0598 57.9231C38.3109 56.0387 38.8158 54.197 39.5607 52.448C39.9453 51.4812 40.4558 50.5694 41.0788 49.736C41.8163 48.8278 42.6578 48.0091 43.586 47.2969C44.7864 46.3094 46.039 45.387 47.3384 44.5338C48.3277 43.8516 49.1635 43.3058 49.7604 42.9305H50.1186C50.6997 42.8683 51.287 42.9564 51.8242 43.1864C53.2727 43.98 54.5256 45.0872 55.4913 46.4271C56.9146 48.2879 58.0264 50.3673 58.7832 52.5844C59.3316 54.187 59.6977 55.8463 59.8748 57.5308C60.139 60.3945 59.8906 63.2824 59.1414 66.059C58.5302 68.6271 57.5598 71.0961 56.2589 73.3932C55.1602 75.2675 53.8181 76.9881 52.2677 78.5101C51.6534 79.2461 50.8769 79.8299 49.9992 80.2157C49.0184 80.6226 47.9462 80.758 46.895 80.608Z" fill="#7253D5"/>
<path d="M53.8223 80.4377C54.6124 78.7182 55.6028 77.0979 56.773 75.6107C57.7049 74.2962 58.5318 72.9104 59.2462 71.4661C60.1897 70.0688 60.8449 68.4974 61.1735 66.8437C61.2383 65.8897 61.2383 64.9324 61.1735 63.9783C61.0018 62.8806 61.0954 61.7577 61.4464 60.7035C61.7294 60.136 62.1307 59.6359 62.6233 59.2367C63.3367 58.655 64.1221 58.1677 64.9601 57.7868C66.9045 56.7123 66.9727 56.6441 67.6379 56.3371C68.3225 55.9778 69.0505 55.7084 69.804 55.5354C70.996 55.3833 72.2069 55.5664 73.3006 56.0642C74.5316 56.524 75.6036 57.3295 76.3878 58.3839C77.1951 59.4711 77.61 60.7998 77.5647 62.1533C77.445 63.1241 77.138 64.0625 76.6607 64.9164C75.2962 68.2253 75.7226 67.526 74.1364 71.2102C73.7183 72.2935 73.2282 73.3477 72.6695 74.3657C71.9792 75.516 71.1485 76.5759 70.1964 77.521C69.0124 78.6698 67.6679 79.6408 66.2051 80.4036C64.2978 81.4662 62.247 82.2475 60.1161 82.7232C58.7103 83.1939 57.1895 83.1939 55.7837 82.7232C55.2055 82.4496 54.7021 82.04 54.3169 81.5293C54.1562 81.2692 54.0192 80.9951 53.9075 80.7106C53.9075 80.5571 53.8223 80.4206 53.8223 80.4206C53.8225 80.4263 53.8225 80.432 53.8223 80.4377Z" fill="#7253D5"/>
<path d="M61.7026 58.5719C61.3785 58.4525 61.7026 57.4632 61.4297 56.0817C61.1568 54.7001 60.7645 54.7854 60.8498 54.0349C60.9859 53.4002 61.2858 52.8121 61.7197 52.3292C62.178 51.6774 62.6854 51.0616 63.2377 50.4872C63.8793 49.7925 64.5942 49.1691 65.3697 48.628C66.5484 47.8743 67.8741 47.3801 69.2585 47.1783C70.424 46.9773 71.6084 46.9087 72.7892 46.9736C74.3789 46.8335 75.9793 47.0671 77.4626 47.6558C78.3011 47.9831 79.0044 48.5842 79.4582 49.3615C79.7888 50.0445 79.9133 50.809 79.8164 51.5617C79.704 52.5097 79.3647 53.4166 78.8272 54.2055C78.3534 54.9922 77.7801 55.7145 77.1215 56.3546C76.6861 55.8969 76.1997 55.4905 75.6717 55.1435C74.7459 54.4865 73.6807 54.0522 72.5594 53.8747C71.4381 53.6972 70.2909 53.7812 69.2074 54.1201C67.6548 54.5497 66.1968 55.2672 64.9092 56.2352C63.2036 57.4462 62.3848 58.1114 62.3166 58.1796C62.2484 58.2478 61.8732 58.623 61.7026 58.5719Z" fill="#7253D5"/>
<path d="M45.447 43.4254C45.7029 43.596 46.5898 42.1803 48.6025 41.191C49.5987 40.5816 50.7659 40.3122 51.9284 40.4235C53.1906 40.6452 53.9752 41.4639 55.1862 42.7772C56.3963 44.1008 57.4232 45.5809 58.2393 47.1778C58.8447 48.2827 59.3857 49.4217 59.8596 50.5891L62.1793 46.4443L64.0384 42.7772C64.6931 41.4747 65.2297 40.1162 65.6417 38.7178C66.3141 36.8811 66.525 34.9072 66.2557 32.9698C66.0852 32.0147 65.7611 30.275 64.5501 29.6951C63.816 29.4731 63.0328 29.4731 62.2987 29.6951C60.5931 29.9509 60.2007 30.3261 58.4269 30.7184C57.7105 30.889 56.7213 30.9913 54.9133 31.2301C53.9224 31.2545 52.9402 31.4211 51.9967 31.7248C51.0444 32.2338 50.2396 32.9799 49.66 33.8909C48.2443 35.7842 48.3125 36.7223 46.6409 40.4064C45.8222 42.1632 45.2253 43.2719 45.447 43.4254Z" fill="#7253D5"/>
<path d="M21.2584 51.7667C20.5769 50.0195 20.1629 48.1794 20.0304 46.3086C19.9544 44.2077 20.1725 42.1065 20.6785 40.066C21.0708 37.9681 21.4461 36.9277 22.3842 36.2454C22.8285 35.8927 23.3701 35.6844 23.9362 35.6484C24.9426 35.6484 25.6419 36.3136 27.1258 37.8657C28.0645 38.8371 28.9526 39.8562 29.7866 40.9188C31.1336 42.8363 32.6095 44.6599 34.2042 46.3769L37.8713 51.3573C37.8332 51.6054 37.7335 51.84 37.5813 52.0396C37.3389 52.3187 37.0075 52.5055 36.6432 52.5683C36.0524 52.6516 35.4509 52.5313 34.9376 52.2272C34.1018 51.8178 33.232 51.3744 32.3791 51.0332C30.2943 50.2577 28.0483 50.0172 25.8466 50.3339C24.6325 50.4471 23.4483 50.7763 22.35 51.3061C22.0291 51.47 21.7212 51.6582 21.429 51.869H21.2925L21.2584 51.7667Z" fill="#7253D5"/>
<path d="M37.311 55.0074C36.6272 57.0452 36.1584 59.1489 35.9124 61.2842C35.5753 63.6853 35.604 66.1236 35.9976 68.5161C36.4903 71.0923 37.3762 73.5775 38.6243 75.8844C39.1879 77.0192 39.8201 78.1185 40.5176 79.1763C39.7349 79.8354 38.8827 80.4073 37.9762 80.8819C36.3015 81.8966 34.3512 82.3618 32.3988 82.2123C30.9864 82.0098 29.6578 81.4193 28.5611 80.5066C27.0212 78.9746 25.7881 77.1626 24.9281 75.168C24.8087 74.9121 24.2799 73.957 23.4101 72.166C22.3696 70.017 21.3633 67.9191 20.3229 65.173C19.4069 63.3082 18.9673 61.2454 19.0436 59.1691C19.1108 58.3098 19.3547 57.4737 19.76 56.713C20.4398 55.5986 21.4379 54.7134 22.6255 54.1716C23.8254 53.569 25.1389 53.2261 26.4802 53.1653C28.7954 52.9845 31.1223 53.3045 33.3028 54.1034L37.311 55.0074Z" fill="#7253D5"/>
<path d="M74.5971 35.3071C74.3583 34.3007 76.4562 31.6911 76.4562 31.6911C76.6609 31.4353 77.5308 30.139 79.2876 27.5635C79.9888 26.1944 81.0206 25.0219 82.2895 24.1523C82.7531 23.8173 83.3241 23.6655 83.8928 23.7259C84.575 23.8623 84.9673 24.4081 85.5984 25.295C86.2005 26.0593 86.6467 26.9344 86.9117 27.8705C87.1787 28.8844 87.2137 29.9455 87.0141 30.9748C86.7639 32.1574 86.2445 33.2663 85.4961 34.2155C84.7486 35.3828 83.7153 36.3398 82.4942 36.9957C80.7463 37.7785 78.7806 37.9292 76.9338 37.4221C76.2532 37.3273 75.6233 37.0093 75.1429 36.5181C74.9873 36.2757 74.8559 36.0186 74.7506 35.7506C74.7506 35.7506 74.6994 35.6482 74.5971 35.3071Z" fill="#7253D5"/>
<path d="M159.848 104.066V2.28931H169.689V95.003H210.736V104.066H159.848Z" fill="white"/>
<path d="M301.463 2.28931H301.751L348.86 104.066H337.335L326.242 79.8773H276.828L266.023 104.066H254.354L301.463 2.28931ZM322.208 71.1193C314.717 54.5591 308.234 40.1015 301.607 24.3928C294.98 40.032 288.497 54.5591 281.006 71.1193H322.208Z" fill="white"/>
<path d="M425.274 111.336H424.982L377.947 2.28931H389.888L409.692 49.8028C415.371 63.3568 420.177 74.0994 425.128 86.5921C430.079 74.0994 434.884 63.3568 440.564 49.8028L460.368 2.28931H472.454L425.274 111.336Z" fill="white"/>
<path d="M516.068 104.031V2.28931H572.283V11.3314H525.913V47.959H565.16V57.1424H525.913V95.0062H574.226V104.066L516.068 104.031Z" fill="white"/>
<path d="M660.725 33.7961C659.718 32.6237 658.568 31.3049 657.705 30.1325C657.705 33.0634 657.849 36.1408 657.849 39.5113V109.577H646.918V2.28931H647.062L713.078 79.8106L716.098 83.4742C716.098 80.5616 715.955 77.6125 715.955 74.0954V4.04786H726.885V111.336H726.741L660.725 33.7961Z" fill="white"/>
<path d="M799.582 104.066V2.28931H827.066C856.761 2.28931 879.549 21.7224 879.549 53.1688C879.549 84.6151 857.106 104.066 827.619 104.066H799.582ZM810.079 11.3345V95.003H827.619C850.96 95.003 868.777 78.7499 868.777 53.1688C868.777 27.5877 850.822 11.3345 826.928 11.3345H810.079Z" fill="white"/>
<path d="M937.701 104.031V2.28931H1000.94V11.3314H948.776V47.959H992.929V57.1424H948.776V95.0062H1003.13V104.066L937.701 104.031Z" fill="white"/>
<path d="M1074.41 0.00146484H1062.95V103.118H1074.41V0.00146484Z" fill="white"/>
<path d="M1072.3 0L1072.48 9.16596L1097.07 9.48323C1098.38 9.48263 1099.68 9.58868 1100.97 9.8005C1104.01 10.102 1106.95 11.2095 1109.51 13.0262C1111.73 14.8054 1113.49 17.188 1114.6 19.9359C1116.28 23.2906 1116.94 27.133 1116.49 30.9174C1115.67 35.6579 1113.19 39.8652 1109.55 42.6392C1108.09 43.6701 1106.49 44.4324 1104.8 44.8955C1101.58 45.4896 1098.32 45.7259 1095.06 45.6005H1091.45L1072.28 45.389L1072.1 54.7841L1096.62 54.9956H1098.71C1101.24 54.8719 1103.76 54.5776 1106.26 54.1142C1108.43 53.6384 1110.52 52.8063 1112.46 51.6465C1122.87 45.389 1124.57 31.8692 1124.64 31.217C1126.26 17.2037 1117.01 7.08598 1113.92 5.07653C1111.42 3.5092 1108.73 2.32295 1105.93 1.55117C1104.19 1.06805 1102.41 0.743798 1100.61 0.581714C1098.22 0.295227 1095.81 0.142244 1093.4 0.1234L1072.3 0Z" fill="white"/>
<path d="M1090.45 53.8416L1102.59 52.7053L1134 103.028L1120.26 103.118C1110.35 86.6925 1100.42 70.2671 1090.45 53.8416Z" fill="white"/>
</svg>
